<svg width="38" height="35" viewBox="0 0 38 35" fill="none" xmlns="http://www.w3.org/2000/svg">
<rect width="38" height="35" fill="#F65F22"/>
<path d="M10.6605 22V13.2727H12.7699V20.2869H16.4006V22H10.6605ZM17.4925 22V15.4545H19.5763V22H17.4925ZM18.5366 14.6918C18.244 14.6918 17.9925 14.5952 17.7823 14.402C17.5721 14.206 17.467 13.9702 17.467 13.6946C17.467 13.4219 17.5721 13.1889 17.7823 12.9957C17.9925 12.7997 18.244 12.7017 18.5366 12.7017C18.832 12.7017 19.0835 12.7997 19.2908 12.9957C19.5011 13.1889 19.6062 13.4219 19.6062 13.6946C19.6062 13.9702 19.5011 14.206 19.2908 14.402C19.0835 14.5952 18.832 14.6918 18.5366 14.6918ZM22.6754 15.4545L23.7536 17.6108L24.87 15.4545H26.9709L25.1428 18.7273L27.0391 22H24.9553L23.7536 19.8267L22.5817 22H20.468L22.3686 18.7273L20.5618 15.4545H22.6754Z" fill="white"/>
</svg>
